Patient4_TMGait_0pt8_01_right_24_EMG.mot
version=1
nRows=30
nColumns=33
inDegrees=no
endheader
time	1LAddLong	2LGlutMax	3LGlutMed	4LIliopsoas	5LSemiMemb	6LBicFemLong	7LRecFem	8LVastMed	9LVastLat	10LGasMed	11LTibAnt	12lTibPost	13LPeroneusLong	14LSol	15LExtDigLong	16LFlexDigLong	17RAddLong	18RGlutMax	19RGlutMed	20RIliopsoas	21RSemiMemb	22RBicFemLong	23RRecFem	24RVastMed	25RVastLat	26RGasMed	27RTibAnt	28RTibPost	29RPeroneusLong	30RSol	31RExtDigLong	32RFlexDigLong
27.595	0.055237	0.026703	0.2095	0.009766	-0.019836	0.29785	-0.058594	-0.000916	0.15717	0.008392	-0.088959	0.005341	0.1088	-0.19989	0.004883	-0.018768	0.075073	-0.012665	-0.15335	-0.27695	0.19669	0.15427	-0.067749	0.016174	0.022278	-0.000916	0.026398	0.049133	-0.36499	0.00946	-0.002441	-0.022888
27.596	0.045471	-0.06073	0.18875	0.021973	-0.097961	0.2623	-0.042419	-0.012512	0.36072	0.019836	-0.027618	0.009613	0.045319	-0.11581	0.20813	-0.010071	0.090637	0.02121	-0.21973	-0.24063	0.1799	0.020294	-0.055695	-0.037079	0.00412	0.027466	-0.038452	-0.019989	-0.41748	0.16846	-0.001831	-0.018005
27.597	0.017548	-0.16571	0.13977	0.036469	-0.11276	-0.0737	0.040436	-0.020599	0.52643	0.02655	-0.009613	0.009918	0.043488	-0.10468	0.18997	-0.01297	0.093384	-0.011139	-0.15793	-0.042877	0.12909	-0.13504	-0.090332	-0.067139	0.003967	0.010529	-0.032043	0.041656	-0.79041	0.48202	-0.004425	-0.024872
27.598	0.001678	-0.15869	0.17487	0.002441	-0.10651	-0.24475	0.076752	-0.009766	0.3685	0.023193	-0.023651	0.004425	0.093536	-0.16113	0.16953	0.00351	0.075531	0.03891	-0.23239	0.15427	0.12329	-0.19257	-0.080872	-0.037384	0.015106	-0.004883	0.027313	0.010071	-0.38956	0.53162	-0.001678	-0.02121
27.599	-0.006256	-0.15747	0.1471	-0.002594	-0.093994	-0.006409	0.10437	0.003662	0.15442	0.039673	-0.005493	0.007782	0.16037	-0.16586	0.18677	-0.006409	0.03006	-0.025024	-0.22537	0.26733	0.076447	-0.24704	-0.087738	-0.030518	0.021362	-0.028381	-0.000153	-0.04364	0.10651	0.55618	0.00061	-0.02655
27.6	-0.022125	-0.17502	0.12085	0.012512	-0.0354	0.19699	0.14343	0.009003	0.000305	0.042114	0.029144	0.003204	0.15549	-0.13306	0.23392	-0.007629	0.033112	-0.062866	-0.17822	0.19669	0.059509	-0.26672	-0.074921	-0.027313	0.023651	-0.028229	-0.051117	-0.28717	0.13489	0.6192	-0.000916	-0.011902
27.601	-0.034332	-0.20264	0.12741	0.014954	0.028076	0.20783	0.11414	0.005646	-0.085449	0.032959	0.02655	0.007324	0.088654	-0.11536	0.233	-0.00824	0.046082	-0.065002	-0.11856	0.12543	0.039825	-0.20264	-0.060883	-0.024567	0.02533	-0.00946	-0.067444	0.041962	0.466	0.31372	-0.005798	-0.022278
27.602	-0.054474	-0.1915	0.097504	0.009308	0.041809	0.19562	0.14236	-0.014038	-0.2124	0.052185	-0.012054	0.00351	-0.059967	-0.1062	0.19959	-0.01297	-0.00885	0.050964	-0.19745	0.080261	0.1532	-0.18005	-0.050659	0.020447	0.011902	-0.005798	-0.02655	0.28412	0.43961	-0.26093	-0.001678	-0.02182
27.603	-0.10956	-0.22751	0.046997	0.008392	-0.10223	0.18173	0.18066	0.005188	-0.33112	0.053406	0.002899	0.019836	-0.06073	-0.083008	0.19669	-0.003662	0.017853	0.035553	-0.21179	0.039368	0.16464	-0.17914	-0.086823	-0.002136	0.036621	-0.008392	-0.036316	0.078888	0.345	-0.26764	-0.005493	-0.028992
27.604	-0.093994	-0.27817	0.017548	-0.005341	-0.1918	0.16022	0.18799	0.005493	-0.23086	0.037384	0.027771	0.00351	-0.061646	-0.032959	0.13123	-0.012665	0.062866	-0.056763	-0.1622	0.020142	0.085144	-0.25452	-0.07782	-0.0914	0.0383	0.00473	-0.10712	0.020142	0.1796	0.11444	-0.000916	-0.016174
27.605	-0.023956	-0.31693	0.021515	-0.000916	-0.14725	-0.012207	0.14954	-0.005188	-0.010223	0.034332	-0.032959	0.005188	-0.016785	-0.005798	0.067139	-0.011292	0.092621	0.013123	-0.168	-0.023804	0.037384	-0.23224	-0.062714	-0.066833	0.037537	0.001068	-0.10544	0.005341	0.10788	0.10452	-0.001526	-0.014648
27.606	0.005493	-0.42007	-0.009918	-0.003662	-0.048065	-0.48843	0.050812	-0.00885	-0.06073	0.043182	-0.00412	0.005798	-0.095062	0.003815	0.098419	-0.01358	0.14023	-0.073547	-0.17593	-0.029602	0.013733	-0.168	-0.072784	-0.006866	0.046692	-0.010071	-0.025024	-0.074005	0.035095	-0.12085	-0.001373	-0.01236
27.607	0.031128	-0.42465	-0.028839	-0.003967	0.13504	-0.8609	0.057831	-0.019684	-0.2243	0.062866	0.049133	-0.000763	-0.014038	-0.010986	0.091095	-0.02243	0.11566	-0.057068	-0.16419	0.007019	-0.018921	-0.23926	-0.090179	0.029755	0.054474	0.000305	0.087433	-0.001068	0.011444	-0.23315	0.00061	-0.019379
27.608	0.041351	-0.40863	-0.002136	-0.00351	0.224	-0.84076	0.070801	-0.022278	-0.24887	0.051727	0.077515	0.008392	0.019226	0.019836	0.04303	-0.007324	0.030823	0.014038	-0.16464	0.044708	-0.03479	-0.33096	-0.10178	0.035095	0.066528	0.010681	0.15778	0.020294	-0.14481	-0.37949	-0.001373	-0.012665
27.609	0.034943	-0.41946	0.025177	0.015259	0.22949	-0.39352	0.014496	-0.027618	-0.21729	0.042572	0.093994	0.015411	-0.066376	0.02533	-0.002594	-0.017395	-0.023193	0.008392	-0.14862	0.022736	0.06958	-0.3183	-0.088654	0.046539	0.049591	0.026398	0.17914	-0.003357	-0.24078	-0.28412	0.004883	-0.012817
27.61	0.025635	-0.47379	0.076447	0.011902	0.15137	0.073395	-0.042877	-0.022583	-0.012512	0.038757	0.063629	0.006409	-0.1387	0.046387	0.019989	-0.009918	-0.004425	0.033417	-0.13306	-0.018311	0.052338	-0.32257	-0.049591	0.022278	0.059662	0.033264	0.001068	-0.018005	-0.2475	-0.26611	-0.000916	-0.01236
27.611	0.016479	-0.50598	0.018616	0.000916	0.05661	0.18829	0.032349	-0.01236	0.23086	0.027313	-0.007019	0.005646	-0.12436	0.055847	0.22247	-0.003357	-0.001984	0.00351	-0.16541	-0.026703	-0.041199	-0.2243	-0.059204	0.020294	0.06012	0.041504	-0.10407	-0.016327	-0.44769	-0.10239	0.001526	-0.006561
27.612	0.011139	-0.5751	0.027161	0.002747	-0.001221	0.028534	0.002899	-0.002594	0.27863	0.027313	-0.050507	-0.001068	-0.025482	0.049896	0.22263	0.002441	0.044098	-0.018311	-0.13473	-0.000763	-0.084229	-0.12131	-0.067596	0.038605	0.075989	0.028687	-0.044098	-0.011292	-0.58762	-0.17044	-0.00061	-0.000916
27.613	0.001068	-0.62668	0.044556	0.000305	-0.041962	-0.1503	-0.027771	0.014191	0.37506	0.015259	-0.050354	-0.002136	0.13718	0.078278	0.22842	0.002441	0.060577	-0.039825	-0.16434	0.014191	-0.040741	-0.13886	-0.088043	0.071564	0.072937	0.010071	0.001068	-0.001068	-0.060577	-0.22903	0.000153	-0.016174
27.614	-0.012512	-0.62683	0.057983	0.001373	-0.00824	-0.19928	0.092926	0.024567	0.22308	0.019226	0.018463	0.002747	0.041351	0.13947	0.26321	-0.002594	0.062714	-0.044861	-0.16708	0.00473	0.007477	-0.19821	-0.030365	0.062714	0.066528	-0.039673	0.011597	-0.00824	0.29724	-0.12985	0.008698	-0.019226
27.615	-0.013733	-0.52536	-0.008392	0.008545	0.032349	0.06134	0.15243	0.017242	0.062561	0.020905	0.005646	0.014954	-0.028534	0.17578	0.14603	-0.008392	-0.011902	-0.028534	-0.17166	0.002594	-0.011749	-0.32044	-0.049591	0.048981	0.06546	-0.053864	-0.010681	-0.011444	0.51697	0.13443	-0.001221	-0.019989
27.616	-0.028687	-0.47012	-0.070953	0.020142	-0.024719	0.23254	0.19287	0.01236	-0.04364	0.018005	-0.074921	0.008698	0.14908	0.11017	-0.31509	-0.008698	-0.071716	0.00412	-0.14053	-0.031281	-0.018921	-0.19562	-0.052185	0.021362	0.062256	-0.064697	-0.054626	-0.016785	0.29098	0.26016	-0.001831	-0.018463
27.617	-0.022278	-0.5043	-0.16022	0.001678	-0.037384	0.31662	0.14114	0.026245	0.093384	0.011292	-0.15656	0.010529	0.44601	0.05249	-0.30975	-0.008392	-0.086212	-0.044861	-0.12405	-0.028229	0.016479	0.028076	-0.15884	0.072632	0.063019	-0.052795	-0.058136	-0.009308	0.23804	0.19791	-0.000305	-0.02182
27.618	-0.007324	-0.51437	-0.25207	-0.002747	-0.053711	0.21927	0.010681	0.013733	0.13992	0.014648	-0.12695	0.018616	0.010529	0.019073	-0.20493	-0.000916	-0.089569	-0.045624	-0.093231	0.0177	-0.009613	0.016785	-0.13458	0.082092	0.068054	-0.02533	-0.040588	-0.009766	0.052795	0.035248	-0.001221	-0.017395
27.619	0.009003	-0.52704	-0.23193	0.002289	0.049286	0.12177	-0.13748	-0.00946	0.10925	0.043182	-0.027771	0.013428	-0.20813	-0.1181	-0.20172	0.007324	-0.046082	-0.038605	-0.11276	0.003052	0.055237	-0.089111	-0.067596	0.079498	0.04425	-0.017395	-0.002747	-0.007935	-0.09201	0.02594	-0.000458	-0.030212
27.62	-0.002441	-0.48294	-0.054474	-0.011292	0.14679	0.22537	-0.033264	-0.019989	0.042725	0.023651	0.050201	0.028076	-0.12604	-0.096741	-0.17273	0.005798	-0.019989	-0.023346	-0.12482	-0.046997	0.12299	-0.11444	-0.090485	0.10162	0.029755	-0.010834	0.020294	-0.02594	0.028229	0.063171	0.00061	-0.032806
27.621	-0.02533	-0.41351	0.064087	-0.00946	0.06134	0.1709	0.14053	-0.009613	-0.17868	0.026398	0.093842	0.045624	-0.39017	-0.057983	-0.089264	0.019226	0.007629	0.007172	-0.11902	-0.10071	0.11948	-0.039673	-0.086975	0.12604	0.063324	0.002441	0.062103	-0.039978	-0.10925	0.70816	0.000763	-0.031738
27.622	-0.02243	-0.35324	0.084534	0.007019	0.010834	-0.327	0.13977	0.001678	-0.32928	0.052643	0.11169	0.035858	-0.33676	-0.033875	-0.072784	0.013733	0.017242	0.016785	-0.089874	-0.11673	0.051422	0.039673	-0.097351	0.086517	0.056458	0.06134	0.0737	-0.054932	0.044098	0.55756	-0.001373	-0.03952
27.623	-0.01709	-0.30594	0.10391	0.011902	-0.064392	-0.35294	0.14572	-0.002747	-0.32562	0.070801	0.059814	0.04776	0.49759	0.00885	-0.036926	0.027771	0.018768	-0.03891	-0.15305	-0.000763	0.047607	0.057983	-0.082245	0.121	0.035095	0.0177	0.015869	-0.037079	0.13626	0.23666	-0.001068	-0.023193
27.624	-0.017395	-0.25375	0.071716	0.018616	-0.10391	-0.037079	0.1004	0.008087	-0.17197	0.028534	-0.009003	0.047455	1.0205	0.05722	0.073853	0.012665	0.026245	-0.049133	-0.18982	0.041046	0.069275	0.054626	-0.012665	0.058441	0.057831	-0.036163	-0.019073	0.018311	-0.10132	-0.38223	-0.001984	-0.02243
